<svg width="19" height="21" viewBox="0 0 19 21" fill="none" xmlns="http://www.w3.org/2000/svg">
<path d="M9.49979 7.58078C7.88754 7.58078 6.58051 8.88777 6.58051 10.5001C6.58051 12.1123 7.88754 13.4193 9.49979 13.4193C11.112 13.4193 12.4191 12.1123 12.4191 10.5001C12.4191 8.88777 11.112 7.58078 9.49979 7.58078ZM17.6936 8.41685L16.9032 9.06753C16.0016 9.80975 16.0016 11.1903 16.9032 11.9326L17.6936 12.5832C17.9737 12.8138 18.046 13.2131 17.8647 13.5273L16.3039 16.2306C16.1225 16.5448 15.7405 16.6818 15.4008 16.5545L14.4421 16.1953C13.3485 15.7857 12.1529 16.4759 11.9609 17.6278L11.7926 18.6377C11.733 18.9955 11.4233 19.2579 11.0605 19.2579H7.93905C7.57626 19.2579 7.26662 18.9955 7.20699 18.6377L7.03866 17.6278C6.84669 16.4759 5.65107 15.7857 4.55749 16.1953L3.59881 16.5545C3.25903 16.6818 2.87707 16.5448 2.69564 16.2306L1.13493 13.5273C0.95354 13.2131 1.02587 12.8138 1.30597 12.5832L2.0964 11.9326C2.99797 11.1903 2.99797 9.80975 2.0964 9.06753L1.30597 8.41685C1.02587 8.18625 0.95354 7.78696 1.13493 7.47275L2.69564 4.76952C2.87707 4.45532 3.25903 4.31831 3.59881 4.44559L4.55749 4.80474C5.65107 5.21442 6.84669 4.52415 7.03866 3.37224L7.20699 2.36238C7.26662 2.00454 7.57626 1.74225 7.93905 1.74225H11.0605C11.4233 1.74225 11.733 2.00454 11.7926 2.36238L11.9609 3.37224C12.1529 4.52415 13.3485 5.21442 14.4421 4.80474L15.4008 4.44559C15.7405 4.31831 16.1225 4.45532 16.3039 4.76952L17.8647 7.47275C18.046 7.78696 17.9737 8.18625 17.6936 8.41685Z" stroke="white" stroke-width="1.6" stroke-miterlimit="10" stroke-linecap="round" stroke-linejoin="round"/>
</svg>
