<svg width="31" height="31" viewBox="0 0 31 31" fill="none" xmlns="http://www.w3.org/2000/svg">
  <rect x="0.749878" y="0.669006" width="30" height="30" rx="15" fill="white"/>
  <g clip-path="url(#clip0_65_208)">
    <path d="M12.3027 11.3381C12.3026 11.2537 12.3248 11.1708 12.3669 11.0976C12.4091 11.0245 12.4697 10.9637 12.5428 10.9215C12.6159 10.8793 12.6988 10.857 12.7832 10.857C12.8676 10.8569 12.9506 10.8792 13.0237 10.9214L20.501 15.2388C20.574 15.281 20.6346 15.3417 20.6767 15.4147C20.7189 15.4878 20.741 15.5706 20.741 15.6549C20.741 15.7392 20.7189 15.8221 20.6767 15.8951C20.6346 15.9681 20.574 16.0288 20.501 16.071L13.0237 20.3885C12.9506 20.4307 12.8678 20.4529 12.7834 20.4529C12.699 20.4529 12.6162 20.4307 12.5431 20.3885C12.4701 20.3463 12.4094 20.2857 12.3672 20.2127C12.325 20.1396 12.3028 20.0567 12.3027 19.9724V11.3381Z" fill="black"/>
  </g>
  <defs>
    <clipPath id="clip0_65_208">
      <rect width="10.9859" height="10.9859" fill="white" transform="translate(10.2429 10.162)"/>
    </clipPath>
  </defs>
</svg>
