<svg width="11" height="11" viewBox="0 0 11 11" fill="none" xmlns="http://www.w3.org/2000/svg">
<path d="M2.02979 0.862659C2.15726 0.862659 2.27951 0.913297 2.36965 1.00343C2.45978 1.09357 2.51042 1.21582 2.51042 1.34329V4.87938L9.34229 0.935441C9.41534 0.893263 9.49821 0.871055 9.58257 0.871048C9.66692 0.871042 9.7498 0.893237 9.82286 0.935404C9.89592 0.977571 9.95659 1.03822 9.99879 1.11127C10.041 1.18431 10.0632 1.26718 10.0632 1.35153V9.98578C10.0633 10.0702 10.0412 10.1531 9.99905 10.2263C9.9569 10.2994 9.89624 10.3602 9.82315 10.4024C9.75007 10.4447 9.66715 10.4669 9.58274 10.4669C9.49832 10.467 9.41539 10.4448 9.34229 10.4026L2.51042 6.45792V9.9947C2.51042 10.1222 2.45978 10.2444 2.36965 10.3346C2.27951 10.4247 2.15726 10.4753 2.02979 10.4753H0.931195C0.803723 10.4753 0.681472 10.4247 0.591336 10.3346C0.5012 10.2444 0.450562 10.1222 0.450562 9.9947V1.34329C0.450562 1.21582 0.5012 1.09357 0.591336 1.00343C0.681472 0.913297 0.803723 0.862659 0.931195 0.862659H2.02979Z" fill="white"/>
</svg>
