<svg width="24" height="24" viewBox="0 0 24 24" fill="none" xmlns="http://www.w3.org/2000/svg">
<path d="M16.4904 4.93274H6.73213C6.55311 4.93274 6.38142 5.00386 6.25483 5.13044C6.12824 5.25703 6.05713 5.42872 6.05713 5.60774C6.05713 5.78676 6.12824 5.95845 6.25483 6.08504C6.38142 6.21162 6.55311 6.28274 6.73213 6.28274H16.4911C16.6702 6.28264 16.8418 6.21143 16.9683 6.08477C17.0948 5.95811 17.1659 5.78639 17.1658 5.60736C17.1657 5.42834 17.0944 5.25669 16.9678 5.13018C16.8411 5.00366 16.6694 4.93264 16.4904 4.93274ZM17.1654 9.41324C17.1654 9.23422 17.0943 9.06253 16.9677 8.93594C16.8411 8.80936 16.6694 8.73824 16.4904 8.73824H6.73213C6.55311 8.73824 6.38142 8.80936 6.25483 8.93594C6.12824 9.06253 6.05713 9.23422 6.05713 9.41324C6.05713 9.59226 6.12824 9.76395 6.25483 9.89054C6.38142 10.0171 6.55311 10.0882 6.73213 10.0882H16.4911C16.67 10.088 16.8415 10.0168 16.9679 9.89027C17.0944 9.76371 17.1654 9.59213 17.1654 9.41324ZM6.73213 12.5445C6.55311 12.5445 6.38142 12.6156 6.25483 12.7422C6.12824 12.8688 6.05713 13.0405 6.05713 13.2195C6.05713 13.3985 6.12824 13.5702 6.25483 13.6968C6.38142 13.8234 6.55311 13.8945 6.73213 13.8945H11.6476C11.8266 13.8945 11.9983 13.8234 12.1249 13.6968C12.2515 13.5702 12.3226 13.3985 12.3226 13.2195C12.3226 13.0405 12.2515 12.8688 12.1249 12.7422C11.9983 12.6156 11.8266 12.5445 11.6476 12.5445H6.73213Z" fill="#202124"/>
<path d="M8.48481 21.825H4.30806C4.0313 21.8246 3.76598 21.7144 3.57028 21.5187C3.37458 21.323 3.26446 21.0577 3.26406 20.781V3.21895C3.26406 2.64295 3.73281 2.17495 4.30806 2.17495H18.9151C19.4903 2.17495 19.9591 2.6437 19.9591 3.21895V9.6277C19.9591 9.80672 20.0302 9.97841 20.1568 10.105C20.2834 10.2316 20.455 10.3027 20.6341 10.3027C20.8131 10.3027 20.9848 10.2316 21.1114 10.105C21.2379 9.97841 21.3091 9.80672 21.3091 9.6277V3.21895C21.3085 2.58434 21.0562 1.97587 20.6075 1.52706C20.1588 1.07825 19.5504 0.825745 18.9158 0.824951H4.30806C3.67338 0.825745 3.06492 1.07822 2.61613 1.52701C2.16734 1.9758 1.91486 2.58427 1.91406 3.21895V20.781C1.91486 21.4156 2.16734 22.0241 2.61613 22.4729C3.06492 22.9217 3.67338 23.1742 4.30806 23.175H8.48481C8.66383 23.175 8.83552 23.1038 8.96211 22.9772C9.0887 22.8507 9.15981 22.679 9.15981 22.5C9.15981 22.3209 9.0887 22.1492 8.96211 22.0227C8.83552 21.8961 8.66383 21.825 8.48481 21.825Z" fill="#202124"/>
<path d="M21.3503 12.6854C20.8788 12.2147 20.2398 11.9503 19.5735 11.9503C18.9073 11.9503 18.2683 12.2147 17.7968 12.6854L11.5905 18.8917C11.3947 19.0868 11.2646 19.3383 11.2185 19.6109L10.8795 21.6232C10.8443 21.8323 10.8596 22.0469 10.9242 22.2489C10.9887 22.4509 11.1006 22.6346 11.2505 22.7846C11.4005 22.9346 11.5841 23.0466 11.7861 23.1112C11.9881 23.1759 12.2026 23.1913 12.4118 23.1562L14.4225 22.8164C14.697 22.7707 14.9468 22.6424 15.1433 22.4452L21.3495 16.2389C21.8202 15.7674 22.0846 15.1285 22.0847 14.4623C22.0849 13.7961 21.8207 13.1571 21.3503 12.6854ZM14.1998 21.4852L12.2108 21.8474L12.5445 19.8457L17.0108 15.3794L18.6563 17.0249L14.1998 21.4852ZM20.3955 15.2842L19.6103 16.0702L17.9648 14.4247L18.7508 13.6387C18.9773 13.4122 19.2758 13.2989 19.5735 13.2989C19.8036 13.2988 20.0286 13.3669 20.2199 13.4947C20.4112 13.6225 20.5603 13.8041 20.6483 14.0167C20.7364 14.2293 20.7593 14.4632 20.7143 14.6888C20.6693 14.9144 20.5584 15.1216 20.3955 15.2842Z" fill="#202124"/>
</svg>
