<svg width="18" height="19" viewBox="0 0 18 19" fill="none" xmlns="http://www.w3.org/2000/svg">
<path d="M8.62476 16.8125C4.38726 16.8125 0.937256 13.3625 0.937256 9.125C0.937256 4.8875 4.38726 1.4375 8.62476 1.4375C12.8623 1.4375 16.3123 4.8875 16.3123 9.125C16.3123 13.3625 12.8623 16.8125 8.62476 16.8125ZM8.62476 2.5625C5.00226 2.5625 2.06226 5.51 2.06226 9.125C2.06226 12.74 5.00226 15.6875 8.62476 15.6875C12.2473 15.6875 15.1873 12.74 15.1873 9.125C15.1873 5.51 12.2473 2.5625 8.62476 2.5625Z" fill="white"/>
<path d="M16.5001 17.5606C16.3576 17.5606 16.2151 17.5081 16.1026 17.3956L14.6026 15.8956C14.3851 15.6781 14.3851 15.3181 14.6026 15.1006C14.8201 14.8831 15.1801 14.8831 15.3976 15.1006L16.8976 16.6006C17.1151 16.8181 17.1151 17.1781 16.8976 17.3956C16.7851 17.5081 16.6426 17.5606 16.5001 17.5606Z" fill="white"/>
</svg>
